<mxfile host="65bd71144e">
    <diagram name="Page-1" id="V2_uuKdX49vbQtdz6IMa">
        <mxGraphModel dx="3091" dy="1409" grid="1" gridSize="10" guides="0" tooltips="1" connect="1" arrows="1" fold="1" page="1" pageScale="1" pageWidth="827" pageHeight="1169" math="0" shadow="0">
            <root>
                <mxCell id="0"/>
                <mxCell id="1" parent="0"/>
                <mxCell id="4" value="&amp;nbsp;Frontend" style="text;html=1;strokeColor=none;fillColor=none;align=center;verticalAlign=middle;whiteSpace=wrap;rounded=0;labelBackgroundColor=none;fontSize=12;fontColor=#B3B3B3;" vertex="1" parent="1">
                    <mxGeometry x="310" y="50" width="60" height="30" as="geometry"/>
                </mxCell>
                <mxCell id="5" value="Backend" style="text;html=1;strokeColor=none;fillColor=none;align=center;verticalAlign=middle;whiteSpace=wrap;rounded=0;labelBackgroundColor=none;fontSize=12;fontColor=#B3B3B3;" vertex="1" parent="1">
                    <mxGeometry x="1220" y="50" width="60" height="30" as="geometry"/>
                </mxCell>
                <mxCell id="6" value="DB" style="text;html=1;strokeColor=none;fillColor=none;align=center;verticalAlign=middle;whiteSpace=wrap;rounded=0;labelBackgroundColor=none;fontSize=12;fontColor=#B3B3B3;" vertex="1" parent="1">
                    <mxGeometry x="2050" y="50" width="60" height="30" as="geometry"/>
                </mxCell>
                <mxCell id="7" value="" style="endArrow=none;html=1;labelBackgroundColor=none;strokeColor=#808080;fontSize=12;fontColor=#B3B3B3;" edge="1" parent="1">
                    <mxGeometry width="50" height="50" relative="1" as="geometry">
                        <mxPoint x="200" y="80" as="sourcePoint"/>
                        <mxPoint x="2270" y="80" as="targetPoint"/>
                    </mxGeometry>
                </mxCell>
                <mxCell id="8" value="&lt;font style=&quot;font-size: 20px;&quot;&gt;&amp;nbsp;Регистрация&lt;/font&gt;" style="text;html=1;strokeColor=none;fillColor=none;align=center;verticalAlign=middle;whiteSpace=wrap;rounded=0;labelBackgroundColor=none;fontSize=12;fontColor=#B3B3B3;" vertex="1" parent="1">
                    <mxGeometry x="300" width="120" height="40" as="geometry"/>
                </mxCell>
                <mxCell id="13" value="" style="endArrow=classic;html=1;labelBackgroundColor=none;strokeColor=#808080;fontSize=12;fontColor=#B3B3B3;entryX=0.5;entryY=0;entryDx=0;entryDy=0;exitX=0.5;exitY=1;exitDx=0;exitDy=0;" edge="1" parent="1" source="54" target="60">
                    <mxGeometry width="50" height="50" relative="1" as="geometry">
                        <mxPoint x="440" y="830" as="sourcePoint"/>
                        <mxPoint x="720" y="830" as="targetPoint"/>
                        <Array as="points">
                            <mxPoint x="340" y="920"/>
                            <mxPoint x="830" y="930"/>
                            <mxPoint x="1200" y="940"/>
                        </Array>
                    </mxGeometry>
                </mxCell>
                <mxCell id="15" value="Данные пользователя" style="text;html=1;strokeColor=none;fillColor=none;align=center;verticalAlign=middle;whiteSpace=wrap;rounded=0;labelBackgroundColor=none;fontSize=12;fontColor=#B3B3B3;" vertex="1" parent="1">
                    <mxGeometry x="620" y="870" width="120" height="40" as="geometry"/>
                </mxCell>
                <mxCell id="16" value="" style="endArrow=classic;html=1;labelBackgroundColor=none;strokeColor=#808080;fontSize=12;fontColor=#B3B3B3;exitX=0.5;exitY=1;exitDx=0;exitDy=0;entryX=0.5;entryY=0;entryDx=0;entryDy=0;" edge="1" parent="1" source="66" target="47">
                    <mxGeometry width="50" height="50" relative="1" as="geometry">
                        <mxPoint x="1300" y="1300" as="sourcePoint"/>
                        <mxPoint x="1230" y="1530" as="targetPoint"/>
                        <Array as="points">
                            <mxPoint x="1200" y="1440"/>
                            <mxPoint x="2060" y="1470"/>
                        </Array>
                    </mxGeometry>
                </mxCell>
                <mxCell id="17" value="Логин пользователя" style="text;html=1;strokeColor=none;fillColor=none;align=center;verticalAlign=middle;whiteSpace=wrap;rounded=0;labelBackgroundColor=none;fontSize=12;fontColor=#B3B3B3;" vertex="1" parent="1">
                    <mxGeometry x="1300" y="1400" width="190" height="40" as="geometry"/>
                </mxCell>
                <mxCell id="21" value="" style="endArrow=classic;html=1;labelBackgroundColor=none;strokeColor=#808080;fontSize=12;fontColor=#B3B3B3;exitX=0.25;exitY=1;exitDx=0;exitDy=0;entryX=0.5;entryY=0;entryDx=0;entryDy=0;" edge="1" parent="1" source="47" target="64">
                    <mxGeometry width="50" height="50" relative="1" as="geometry">
                        <mxPoint x="1655" y="1660" as="sourcePoint"/>
                        <mxPoint x="1280" y="1590" as="targetPoint"/>
                        <Array as="points">
                            <mxPoint x="2020" y="1650"/>
                            <mxPoint x="1200" y="1650"/>
                        </Array>
                    </mxGeometry>
                </mxCell>
                <mxCell id="23" value="Такого пользователя нет" style="text;html=1;strokeColor=none;fillColor=none;align=center;verticalAlign=middle;whiteSpace=wrap;rounded=0;labelBackgroundColor=none;fontSize=12;fontColor=#B3B3B3;" vertex="1" parent="1">
                    <mxGeometry x="1770" y="1610" width="190" height="40" as="geometry"/>
                </mxCell>
                <mxCell id="24" value="" style="endArrow=classic;html=1;labelBackgroundColor=none;strokeColor=#808080;fontSize=12;fontColor=#B3B3B3;" edge="1" parent="1">
                    <mxGeometry width="50" height="50" relative="1" as="geometry">
                        <mxPoint x="3000" y="1250" as="sourcePoint"/>
                        <mxPoint x="3280" y="1250" as="targetPoint"/>
                    </mxGeometry>
                </mxCell>
                <mxCell id="25" value="Запрос на создание новой учётной записи" style="text;html=1;strokeColor=none;fillColor=none;align=center;verticalAlign=middle;whiteSpace=wrap;rounded=0;labelBackgroundColor=none;fontSize=12;fontColor=#B3B3B3;" vertex="1" parent="1">
                    <mxGeometry x="3005" y="1220" width="260" height="30" as="geometry"/>
                </mxCell>
                <mxCell id="26" value="" style="endArrow=classic;html=1;labelBackgroundColor=none;strokeColor=#808080;fontSize=12;fontColor=#B3B3B3;" edge="1" parent="1">
                    <mxGeometry width="50" height="50" relative="1" as="geometry">
                        <mxPoint x="3280" y="1330" as="sourcePoint"/>
                        <mxPoint x="3000" y="1330" as="targetPoint"/>
                    </mxGeometry>
                </mxCell>
                <mxCell id="27" value="Подтверждение создание учётной записи" style="text;html=1;strokeColor=none;fillColor=none;align=center;verticalAlign=middle;whiteSpace=wrap;rounded=0;labelBackgroundColor=none;fontSize=12;fontColor=#B3B3B3;" vertex="1" parent="1">
                    <mxGeometry x="3040" y="1290" width="190" height="40" as="geometry"/>
                </mxCell>
                <mxCell id="28" value="" style="endArrow=classic;html=1;labelBackgroundColor=none;strokeColor=#808080;fontSize=12;fontColor=#B3B3B3;" edge="1" parent="1">
                    <mxGeometry width="50" height="50" relative="1" as="geometry">
                        <mxPoint x="2880" y="1810" as="sourcePoint"/>
                        <mxPoint x="2600" y="1810" as="targetPoint"/>
                    </mxGeometry>
                </mxCell>
                <mxCell id="30" value="" style="endArrow=classic;html=1;labelBackgroundColor=none;strokeColor=#808080;fontSize=12;fontColor=#B3B3B3;" edge="1" parent="1">
                    <mxGeometry width="50" height="50" relative="1" as="geometry">
                        <mxPoint x="3000" y="1410" as="sourcePoint"/>
                        <mxPoint x="3280" y="1410" as="targetPoint"/>
                    </mxGeometry>
                </mxCell>
                <mxCell id="31" value="Запрос на существование пользователя с таким логином" style="text;html=1;strokeColor=none;fillColor=none;align=center;verticalAlign=middle;whiteSpace=wrap;rounded=0;labelBackgroundColor=none;fontSize=12;fontColor=#B3B3B3;" vertex="1" parent="1">
                    <mxGeometry x="3040" y="1370" width="190" height="40" as="geometry"/>
                </mxCell>
                <mxCell id="32" value="" style="endArrow=classic;html=1;labelBackgroundColor=none;strokeColor=#808080;fontSize=12;fontColor=#B3B3B3;" edge="1" parent="1">
                    <mxGeometry width="50" height="50" relative="1" as="geometry">
                        <mxPoint x="3280" y="1490" as="sourcePoint"/>
                        <mxPoint x="3000" y="1490" as="targetPoint"/>
                    </mxGeometry>
                </mxCell>
                <mxCell id="33" value="Подтверждение существование пользователя с таким логином" style="text;html=1;strokeColor=none;fillColor=none;align=center;verticalAlign=middle;whiteSpace=wrap;rounded=0;labelBackgroundColor=none;fontSize=12;fontColor=#B3B3B3;" vertex="1" parent="1">
                    <mxGeometry x="3040" y="1450" width="190" height="40" as="geometry"/>
                </mxCell>
                <mxCell id="34" value="Подтверждение создания учётной записи" style="text;html=1;strokeColor=none;fillColor=none;align=center;verticalAlign=middle;whiteSpace=wrap;rounded=0;labelBackgroundColor=none;fontSize=12;fontColor=#B3B3B3;" vertex="1" parent="1">
                    <mxGeometry x="2645" y="1770" width="190" height="40" as="geometry"/>
                </mxCell>
                <mxCell id="40" style="edgeStyle=none;html=1;exitX=0.5;exitY=1;exitDx=0;exitDy=0;entryX=0.5;entryY=0;entryDx=0;entryDy=0;labelBackgroundColor=none;strokeColor=#808080;fontSize=12;fontColor=#B3B3B3;" edge="1" parent="1" source="37" target="39">
                    <mxGeometry relative="1" as="geometry"/>
                </mxCell>
                <mxCell id="37" value="Отображение страницы авторизиции" style="rounded=0;whiteSpace=wrap;html=1;labelBackgroundColor=none;fontSize=12;fillColor=none;strokeColor=#B266FF;" vertex="1" parent="1">
                    <mxGeometry x="240" y="160" width="200" height="60" as="geometry"/>
                </mxCell>
                <mxCell id="39" value="Нажатие на кнопку перехода на страницу регистрации" style="rounded=0;whiteSpace=wrap;html=1;labelBackgroundColor=none;fontSize=12;fillColor=none;strokeColor=#B266FF;" vertex="1" parent="1">
                    <mxGeometry x="240" y="320" width="200" height="60" as="geometry"/>
                </mxCell>
                <mxCell id="47" value="Проверка существования пользователя" style="rounded=0;whiteSpace=wrap;html=1;labelBackgroundColor=none;fontSize=12;fillColor=none;strokeColor=#004C99;" vertex="1" parent="1">
                    <mxGeometry x="1990" y="1540" width="140" height="60" as="geometry"/>
                </mxCell>
                <mxCell id="48" value="Создание учётной записи" style="rounded=0;whiteSpace=wrap;html=1;labelBackgroundColor=none;fontSize=12;fillColor=none;strokeColor=#004C99;" vertex="1" parent="1">
                    <mxGeometry x="1990" y="1860" width="140" height="60" as="geometry"/>
                </mxCell>
                <mxCell id="49" value="Создание учётной записи" style="rounded=0;whiteSpace=wrap;html=1;labelBackgroundColor=none;fontSize=12;fillColor=none;strokeColor=#004C99;" vertex="1" parent="1">
                    <mxGeometry x="3340" y="1390" width="140" height="60" as="geometry"/>
                </mxCell>
                <mxCell id="50" style="edgeStyle=none;html=1;entryX=0.5;entryY=0;entryDx=0;entryDy=0;labelBackgroundColor=none;strokeColor=#808080;fontSize=12;fontColor=#B3B3B3;" edge="1" parent="1" target="37">
                    <mxGeometry relative="1" as="geometry">
                        <mxPoint x="340" y="80" as="sourcePoint"/>
                        <mxPoint x="350" y="329" as="targetPoint"/>
                    </mxGeometry>
                </mxCell>
                <mxCell id="52" value="Ввод данных пользователя" style="rounded=0;whiteSpace=wrap;html=1;labelBackgroundColor=none;fontSize=12;fillColor=none;strokeColor=#B266FF;" vertex="1" parent="1">
                    <mxGeometry x="240" y="640" width="200" height="60" as="geometry"/>
                </mxCell>
                <mxCell id="53" style="edgeStyle=none;html=1;entryX=0.5;entryY=0;entryDx=0;entryDy=0;labelBackgroundColor=none;strokeColor=#808080;fontSize=12;fontColor=#B3B3B3;exitX=0.5;exitY=1;exitDx=0;exitDy=0;" edge="1" parent="1" target="54" source="52">
                    <mxGeometry relative="1" as="geometry">
                        <mxPoint x="340" y="730" as="sourcePoint"/>
                    </mxGeometry>
                </mxCell>
                <mxCell id="62" style="edgeStyle=none;html=1;exitX=0.5;exitY=1;exitDx=0;exitDy=0;labelBackgroundColor=none;strokeColor=#808080;fontSize=12;fontColor=#B3B3B3;entryX=0.5;entryY=0;entryDx=0;entryDy=0;" edge="1" parent="1" source="54" target="63">
                    <mxGeometry relative="1" as="geometry">
                        <mxPoint x="340.43478260869597" y="990.0000000000002" as="targetPoint"/>
                    </mxGeometry>
                </mxCell>
                <mxCell id="54" value="Нажатие на кнопку &quot;Зарегистрироваться&quot;" style="rounded=0;whiteSpace=wrap;html=1;labelBackgroundColor=none;fontSize=12;fillColor=none;strokeColor=#B266FF;" vertex="1" parent="1">
                    <mxGeometry x="240" y="800" width="200" height="60" as="geometry"/>
                </mxCell>
                <mxCell id="56" value="Отображение страницы регистрации" style="rounded=0;whiteSpace=wrap;html=1;labelBackgroundColor=none;fontSize=12;fillColor=none;strokeColor=#B266FF;" vertex="1" parent="1">
                    <mxGeometry x="240" y="480" width="200" height="60" as="geometry"/>
                </mxCell>
                <mxCell id="57" style="edgeStyle=none;html=1;exitX=0.5;exitY=1;exitDx=0;exitDy=0;labelBackgroundColor=none;strokeColor=#808080;fontSize=12;fontColor=#B3B3B3;" edge="1" parent="1" source="39">
                    <mxGeometry relative="1" as="geometry">
                        <mxPoint x="340" y="410" as="sourcePoint"/>
                        <mxPoint x="340" y="480" as="targetPoint"/>
                    </mxGeometry>
                </mxCell>
                <mxCell id="58" style="edgeStyle=none;html=1;exitX=0.5;exitY=1;exitDx=0;exitDy=0;labelBackgroundColor=none;strokeColor=#808080;fontSize=12;fontColor=#B3B3B3;entryX=0.5;entryY=0;entryDx=0;entryDy=0;" edge="1" parent="1" source="56" target="52">
                    <mxGeometry relative="1" as="geometry">
                        <mxPoint x="340" y="570" as="sourcePoint"/>
                        <mxPoint x="340" y="620" as="targetPoint"/>
                    </mxGeometry>
                </mxCell>
                <mxCell id="67" style="edgeStyle=none;html=1;exitX=0.5;exitY=1;exitDx=0;exitDy=0;entryX=0.5;entryY=0;entryDx=0;entryDy=0;labelBackgroundColor=none;strokeColor=#808080;fontSize=12;fontColor=#B3B3B3;" edge="1" parent="1" source="60" target="66">
                    <mxGeometry relative="1" as="geometry"/>
                </mxCell>
                <mxCell id="60" value="Сохранение в локальную память данных пользователя" style="rounded=0;whiteSpace=wrap;html=1;labelBackgroundColor=none;fontSize=12;fillColor=none;strokeColor=#999900;" vertex="1" parent="1">
                    <mxGeometry x="1100" y="1000" width="200" height="60" as="geometry"/>
                </mxCell>
                <mxCell id="63" value="&amp;nbsp;Отображение индикатора загрузки" style="rounded=0;whiteSpace=wrap;html=1;labelBackgroundColor=none;fontSize=12;fillColor=none;strokeColor=#B266FF;" vertex="1" parent="1">
                    <mxGeometry x="240" y="1000" width="200" height="60" as="geometry"/>
                </mxCell>
                <mxCell id="68" style="edgeStyle=none;html=1;entryX=0.5;entryY=0;entryDx=0;entryDy=0;labelBackgroundColor=none;strokeColor=#808080;fontSize=12;fontColor=#B3B3B3;exitX=0.5;exitY=1;exitDx=0;exitDy=0;" edge="1" parent="1" source="64" target="48">
                    <mxGeometry relative="1" as="geometry"/>
                </mxCell>
                <mxCell id="64" value="Запрос на создание учётной записи" style="rounded=0;whiteSpace=wrap;html=1;labelBackgroundColor=none;fontSize=12;fillColor=none;strokeColor=#999900;" vertex="1" parent="1">
                    <mxGeometry x="1100" y="1730" width="200" height="60" as="geometry"/>
                </mxCell>
                <mxCell id="66" value="Запрос существование пользователя с таким логином" style="rounded=0;whiteSpace=wrap;html=1;labelBackgroundColor=none;fontSize=12;fillColor=none;strokeColor=#999900;" vertex="1" parent="1">
                    <mxGeometry x="1100" y="1260" width="200" height="60" as="geometry"/>
                </mxCell>
            </root>
        </mxGraphModel>
    </diagram>
</mxfile>